<?xml version="1.0" encoding="UTF-8" standalone="no" ?>
<!DOCTYPE svg PUBLIC "-//W3C//DTD SVG 1.1//EN" "http://www.w3.org/Graphics/SVG/1.1/DTD/svg11.dtd">
<svg xmlns="http://www.w3.org/2000/svg" xmlns:xlink="http://www.w3.org/1999/xlink" version="1.1" width="1080" height="1080" viewBox="0 0 1080 1080" xml:space="preserve">
<desc>Created with Fabric.js 5.2.4</desc>
<defs>
</defs>
<g transform="matrix(1 0 0 1 540 540)" id="3d9cf88c-58c9-4c2a-8ec3-3fb378a44fc6"  >
<rect style="stroke: none; stroke-width: 1; stroke-dasharray: none; stroke-linecap: butt; stroke-dashoffset: 0; stroke-linejoin: miter; stroke-miterlimit: 4; fill: rgb(255,255,255); fill-rule: nonzero; opacity: 1; visibility: hidden;" vector-effect="non-scaling-stroke"  x="-540" y="-540" rx="0" ry="0" width="1080" height="1080" />
</g>
<g transform="matrix(1 0 0 1 540 540)" id="905435c3-2ff9-4415-bde2-4eee11bd9774"  >
</g>
<g transform="matrix(91.78 0 0 91.78 540 540)"  >
<g style="opacity: 1;"   >
		<g transform="matrix(0.73 0 0 0.73 2.8 0)" clip-path="url(#CLIPPATH_3)"  >
<clipPath id="CLIPPATH_3" >
	<path transform="matrix(1 0 0 1 0 0) translate(-9.06, -0.54)" id="SvgjsClipPath85784afdd3f32-7921-4195-b99c-1ddb85ec3aa3" clip-path="url(#undefined)" d="M 7.625699951171875 -0.5877742763902319 L 10.493003902974277 -0.5877742763902319 L 10.493003902974277 1.6587742763902318 L 7.625699951171875 1.6587742763902318 Z" stroke-linecap="round" />
</clipPath>
<path style="stroke: none; stroke-width: 1; stroke-dasharray: none; stroke-linecap: butt; stroke-dashoffset: 0; stroke-linejoin: miter; stroke-miterlimit: 4; fill: rgb(41,115,178); fill-rule: evenodd; opacity: 1;" vector-effect="non-scaling-stroke"  transform=" translate(-9.06, -0.54)" d="M 10.347232565660061 0.44944871688250143 C 10.363527505643903 0.4826883860103166 10.391131730601124 0.5207099126392809 10.424563382889886 0.5727757458883589 C 10.482565926192892 0.6631082534949964 10.514018675130346 0.6818369492422394 10.477119511596154 0.7135230315599221 C 10.470488708575722 0.7192145938852554 10.407119497527448 0.7553192424918318 10.378487424262383 0.7672133377093289 C 10.34074058123293 0.7828968851652287 10.332500073247626 0.7820846487150646 10.331484039288148 0.8482361388035375 C 10.333876444832269 0.8845652600290685 10.358211048879191 0.9239779261781325 10.360603454423313 0.9603129545778466 C 10.364008940339819 1.0120007286792116 10.294635086734512 1.0176125441530741 10.29302242818255 1.0421095954900297 C 10.290618208290063 1.0789201514114763 10.388127932529061 1.0705201497232317 10.32736969246968 1.1219657296830934 C 10.29908023530723 1.1459222745823034 10.297724538832227 1.206766168667339 10.297482344690724 1.2720670256734583 C 10.296932977491704 1.41861515639274 10.181450675800889 1.3706252733299416 10.044835458470343 1.3729792822418718 C 10.000330808175521 1.3737472148856638 9.958850631062402 1.3764231647905687 9.920194083208765 1.3807797057505407 C 9.699442983989563 1.4056754913448495 9.689687285826317 1.6248730037539194 9.664156479007334 1.6498337682642412 C 9.672822303533813 1.6198932559176393 8.971177014836783 1.6587742763902318 8.971177014836783 1.6587742763902318 C 8.987288832420951 1.404417263243868 8.958999375258502 1.240643812606919 8.913224682514333 1.1254066586446985 L 9.497521002478715 1.1254066586446985 C 9.544554911473718 1.1252574523074905 9.582644093970575 1.0871616726818907 9.582785154636326 1.0401277385516288 L 9.582785154636326 1.0401277385516288 C 9.582647293593293 0.9930857553535344 9.544548208079348 0.954984030759102 9.497506234543255 0.9548429112843762 L 8.632568929905194 0.9548429112843762 C 8.585525131981726 0.9547050258014453 8.54742331245723 0.916601886687717 8.547287056225032 0.8695580840171233 L 8.547287056225032 0.8695580840171233 C 8.547429780039371 0.822517929929105 8.585528770902314 0.7844202585574287 8.632568929905194 0.7842791639240536 L 9.03429517098228 0.7842791639240536 C 9.081337347209365 0.7841445370249294 9.11944048359841 0.7460453594033016 9.119579998249531 0.6990031974180753 L 9.119579998249531 0.6990031974180753 C 9.119442120839881 0.651958916974755 9.08133945142559 0.6138562475604681 9.034295170982274 0.6137183701508231 L 8.015493700399272 0.6137183701508231 C 7.968453164904327 0.6135804847207806 7.93035399007274 0.5754799903001511 7.930217733893294 0.5284394500577534 L 7.930217733893294 0.5284394500577534 C 7.93035236079242 0.4813972738306638 7.96845153841405 0.4432941374416206 8.015493700399276 0.4431546227905008 L 9.185675370183267 0.4431546227905008 C 9.232716870766104 0.4430167535633005 9.270817745408799 0.4049171984771155 9.270957243863428 0.3578757026974314 L 9.270957243863428 0.3578757026974314 C 9.270821003865818 0.3108309348606031 9.232720123611626 0.27272609593630437 9.185675370183263 0.27258496825599554 L 8.5157575140232 0.27258496825599554 C 8.468715825078673 0.2724487040153597 8.430614858170767 0.23434773710745327 8.43047859393013 0.18730604816292595 L 8.43047859393013 0.18730604816292595 C 8.430616471286339 0.14026503014780478 8.468716496008083 0.102165005426062 8.515757514023202 0.10202712806985637 L 9.497497373781982 0.10202712806985637 C 9.54453819868794 0.1018860168292921 9.582636811838682 0.06378608415466325 9.582776293875053 0.016745254389695208 L 9.582776293875053 0.016745254389695208 C 9.582638432832017 -0.030296728808399287 9.544539347318075 -0.06839845340283157 9.49749737378198 -0.06853957287755741 L 8.025848976742095 -0.06853957287755741 C 7.978807287797568 -0.06867583711819325 7.940706320889661 -0.10677680402609968 7.940570056649025 -0.1538184929706271 L 7.940570056649025 -0.1538184929706271 C 7.940706304764859 -0.20086114698663748 7.978806332276368 -0.23896381364388547 8.025848976742097 -0.23910332023787972 L 9.019979134349747 -0.23910332023787972 C 9.067021117547839 -0.23924118128091293 9.105122842142272 -0.27734026679485485 9.105263961617 -0.32438224033094926 L 9.105263961617 -0.32438224033094926 C 9.105122858610343 -0.3714251790821701 9.067022073100967 -0.40952596459154567 9.019979134349747 -0.40966706759820193 L 8.680641513406556 -0.40966706759820193 C 8.63359933717947 -0.40980169449732595 8.595496200790425 -0.4479008721189537 8.595356686139302 -0.49494303410418 L 8.595356686139302 -0.49494303410418 C 8.595494555420501 -0.5419877971148847 8.633596755198676 -0.5800913164497598 8.680641513406556 -0.5802308149585241 L 9.352623926943584 -0.5802308149585241 C 9.538552234353924 -0.6046628873794666 9.73721640930284 -0.570959505078285 9.925052733974294 -0.4616147573636198 C 10.181887806690431 -0.312113039552831 10.283381919915872 0.004815716127099856 10.26314984833905 0.223233481544012 C 10.255686133758815 0.3038427804454099 10.297476437516542 0.34799595387634175 10.347232565660061 0.44944871688250143 Z M 8.349045244230203 0.9548370041101932 C 8.396088559681372 0.9546991106091558 8.434189529346872 0.916595501732653 8.434324164323272 0.8695521768429406 L 8.434324164323272 0.8695521768429406 C 8.43418467406373 0.8225118297014289 8.39608559137171 0.7844127470094109 8.3490452442302 0.7842732567498707 L 8.135149420650388 0.7842732567498707 C 8.088107437452296 0.7844111177929041 8.050005712857862 0.8225102033068463 8.049864593383134 0.8695521768429406 L 8.049864593383134 0.8695521768429406 C 8.050000857675968 0.9165971282159899 8.088104469277337 0.9547007398173581 8.135149420650386 0.9548370041101932 Z M 8.322188276807132 -0.4096670675982019 C 8.369227475358336 -0.40980654960693763 8.407326085687341 -0.44790384041215514 8.407467196900203 -0.49494303410418 L 8.407467196900203 -0.49494303410418 C 8.407330956929522 -0.5419861707272441 8.369231399021228 -0.5800896873053545 8.322188276807127 -0.5802308149585241 L 8.108292453227318 -0.5802308149585241 C 8.061247024089585 -0.5800929294491519 8.023143882218635 -0.5419884679888722 8.023007625960064 -0.49494303410418 L 8.023007625960064 -0.49494303410418 C 8.023148753586097 -0.44790154310434294 8.061250947818026 -0.4098033075419457 8.108292453227318 -0.4096670675982019 Z M 7.924880602018941 0.27258496825599576 C 7.9719170061870015 0.27244060708851936 8.010009863365791 0.2343424718803997 8.010147707763645 0.18730604816292595 L 8.010147707763645 0.18730604816292595 C 8.01001144352301 0.14026435921839886 7.971910476615103 0.10216339231049221 7.924868787670576 0.10202712806985637 L 7.71097296409076 0.10202712806985637 C 7.663929639201049 0.10216176304625757 7.625826030324545 0.14026273271175604 7.625688136823508 0.18730604816292595 L 7.625688136823508 0.18730604816292595 C 7.625827643417503 0.23434869262865665 7.663930310074752 0.27244872014016297 7.710972964090759 0.27258496825599576 Z M 9.748091516973767 -0.2391033202378795 C 9.795134170989774 -0.23923956835371207 9.833236837647025 -0.2773395958652186 9.83337634424102 -0.32438224033094903 L 9.83337634424102 -0.32438224033094903 C 9.833236853926781 -0.3714258499003218 9.795135126543144 -0.40952757728396083 9.74809151697377 -0.4096670675982017 L 9.534198646981043 -0.4096670675982017 C 9.487155037411668 -0.40952757728396205 9.449053310028031 -0.371425849900324 9.448913819713791 -0.324382240330949 L 9.448913819713791 -0.324382240330949 C 9.449053326307787 -0.277339595865219 9.487155992965036 -0.23923956835371246 9.534198646981043 -0.23910332023787972 Z M 9.924606742323476 0.4431487156163181 C 9.971647760338595 0.44301083826011145 10.009747785060338 0.4049108135383678 10.009885662416545 0.3578697955232484 L 10.009885662416545 0.3578697955232484 C 10.00974941430071 0.3108271415072379 9.971649386789203 0.2727244748499901 9.924606742323473 0.27258496825599576 L 9.710713872330752 0.27258496825599576 C 9.663670262761375 0.27272445857023553 9.625568535377738 0.31082618595387357 9.625429045063498 0.3578697955232486 L 9.625429045063498 0.3578697955232486 C 9.625566938564535 0.4049131109744176 9.663670547441038 0.44301408063991654 9.71071387233075 0.4431487156163181 Z M 9.61841427572117 0.7842880246853288 C 9.665465642589847 0.7841533347287379 9.703572559751281 0.7460398189669295 9.703699102988423 0.6989884294826181 L 9.703699102988423 0.6989884294826181 C 9.703561225578772 0.6519441490392976 9.665458556164483 0.6138414796250107 9.618414275721166 0.6137036022153655 L 9.404518452141355 0.6137036022153655 C 9.35747417169804 0.6138414796250133 9.31937150228375 0.6519441490393025 9.319233624874103 0.6989884294826181 L 9.319233624874103 0.6989884294826181 C 9.319376365262844 0.7460292495528722 9.357477617494078 0.7841265432124453 9.404518452141357 0.784264395988596 Z" stroke-linecap="round" />
</g>
		<g transform="matrix(0.73 0 0 0.73 -1.17 0)"  >
<path style="stroke: none; stroke-width: 1; stroke-dasharray: none; stroke-linecap: butt; stroke-dashoffset: 0; stroke-linejoin: miter; stroke-miterlimit: 4; fill: rgb(41,115,178); fill-rule: nonzero; opacity: 1;" vector-effect="non-scaling-stroke"  transform=" translate(-3.65, -0.54)" d="M 0.0915 1.0709999999999997 L 0.0915 0.005999999999999783 L 0.8220000000000001 0.005999999999999783 L 0.8220000000000001 0.2609999999999997 L 0.384 0.2609999999999997 L 0.384 0.4379999999999997 L 0.741 0.4379999999999997 L 0.741 0.6749999999999997 L 0.384 0.6749999999999997 L 0.384 1.0709999999999997 L 0.0915 1.0709999999999997 M 1.407024169921875 1.0799999999999996 Q 1.285524169921875 1.0799999999999996 1.186524169921875 1.0342499999999997 Q 1.087524169921875 0.9884999999999997 1.016274169921875 0.9112499999999997 Q 0.945024169921875 0.8339999999999997 0.906774169921875 0.7372499999999997 Q 0.868524169921875 0.6404999999999997 0.868524169921875 0.5369999999999997 Q 0.868524169921875 0.43049999999999977 0.909024169921875 0.3344999999999997 Q 0.9495241699218749 0.2384999999999997 1.022274169921875 0.16274999999999973 Q 1.095024169921875 0.08699999999999974 1.194774169921875 0.04349999999999965 Q 1.294524169921875 -2.220446049250313e-16 1.4130241699218749 -2.220446049250313e-16 Q 1.534524169921875 -2.220446049250313e-16 1.633524169921875 0.045749999999999735 Q 1.732524169921875 0.09149999999999969 1.803024169921875 0.16949999999999976 Q 1.873524169921875 0.24749999999999972 1.9117741699218749 0.3442499999999997 Q 1.950024169921875 0.4409999999999997 1.950024169921875 0.5429999999999997 Q 1.950024169921875 0.6479999999999997 1.910274169921875 0.7439999999999998 Q 1.8705241699218749 0.8399999999999997 1.797774169921875 0.9157499999999997 Q 1.7250241699218751 0.9914999999999997 1.626024169921875 1.0357499999999997 Q 1.527024169921875 1.0799999999999996 1.407024169921875 1.0799999999999996 M 1.165524169921875 0.5399999999999997 Q 1.165524169921875 0.5939999999999996 1.180524169921875 0.6442499999999998 Q 1.195524169921875 0.6944999999999997 1.2255241699218749 0.7342499999999997 Q 1.2555241699218749 0.7739999999999998 1.301274169921875 0.7972499999999998 Q 1.347024169921875 0.8204999999999998 1.410024169921875 0.8204999999999998 Q 1.473024169921875 0.8204999999999998 1.519524169921875 0.7964999999999998 Q 1.5660241699218749 0.7724999999999997 1.595274169921875 0.7312499999999997 Q 1.6245241699218749 0.6899999999999997 1.638774169921875 0.6397499999999997 Q 1.653024169921875 0.5894999999999997 1.653024169921875 0.5369999999999997 Q 1.653024169921875 0.48299999999999976 1.638024169921875 0.43349999999999966 Q 1.6230241699218748 0.3839999999999997 1.593024169921875 0.3442499999999997 Q 1.563024169921875 0.30449999999999966 1.516524169921875 0.2819999999999997 Q 1.470024169921875 0.25949999999999973 1.4085241699218751 0.25949999999999973 Q 1.345524169921875 0.25949999999999973 1.299774169921875 0.28349999999999975 Q 1.254024169921875 0.30749999999999966 1.224024169921875 0.3472499999999997 Q 1.194024169921875 0.3869999999999997 1.179774169921875 0.4372499999999997 Q 1.165524169921875 0.4874999999999997 1.165524169921875 0.5399999999999997 M 2.559046142578125 1.0799999999999996 Q 2.437546142578125 1.0799999999999996 2.338546142578125 1.0342499999999997 Q 2.239546142578125 0.9884999999999997 2.168296142578125 0.9112499999999997 Q 2.097046142578125 0.8339999999999997 2.058796142578125 0.7372499999999997 Q 2.020546142578125 0.6404999999999997 2.020546142578125 0.5369999999999997 Q 2.020546142578125 0.43049999999999977 2.061046142578125 0.3344999999999997 Q 2.1015461425781248 0.2384999999999997 2.174296142578125 0.16274999999999973 Q 2.247046142578125 0.08699999999999974 2.3467961425781247 0.04349999999999965 Q 2.446546142578125 -2.220446049250313e-16 2.565046142578125 -2.220446049250313e-16 Q 2.686546142578125 -2.220446049250313e-16 2.785546142578125 0.045749999999999735 Q 2.8845461425781247 0.09149999999999969 2.9550461425781247 0.16949999999999976 Q 3.0255461425781247 0.24749999999999972 3.063796142578125 0.3442499999999997 Q 3.102046142578125 0.4409999999999997 3.102046142578125 0.5429999999999997 Q 3.102046142578125 0.6479999999999997 3.062296142578125 0.7439999999999998 Q 3.0225461425781246 0.8399999999999997 2.949796142578125 0.9157499999999997 Q 2.877046142578125 0.9914999999999997 2.778046142578125 1.0357499999999997 Q 2.679046142578125 1.0799999999999996 2.559046142578125 1.0799999999999996 M 2.317546142578125 0.5399999999999997 Q 2.317546142578125 0.5939999999999996 2.332546142578125 0.6442499999999998 Q 2.3475461425781248 0.6944999999999997 2.377546142578125 0.7342499999999997 Q 2.407546142578125 0.7739999999999998 2.453296142578125 0.7972499999999998 Q 2.499046142578125 0.8204999999999998 2.562046142578125 0.8204999999999998 Q 2.625046142578125 0.8204999999999998 2.671546142578125 0.7964999999999998 Q 2.718046142578125 0.7724999999999997 2.747296142578125 0.7312499999999997 Q 2.776546142578125 0.6899999999999997 2.7907961425781247 0.6397499999999997 Q 2.805046142578125 0.5894999999999997 2.805046142578125 0.5369999999999997 Q 2.805046142578125 0.48299999999999976 2.7900461425781247 0.43349999999999966 Q 2.775046142578125 0.3839999999999997 2.7450461425781247 0.3442499999999997 Q 2.715046142578125 0.30449999999999966 2.668546142578125 0.2819999999999997 Q 2.622046142578125 0.25949999999999973 2.560546142578125 0.25949999999999973 Q 2.497546142578125 0.25949999999999973 2.4517961425781247 0.28349999999999975 Q 2.4060461425781248 0.30749999999999966 2.376046142578125 0.3472499999999997 Q 2.3460461425781247 0.3869999999999997 2.331796142578125 0.4372499999999997 Q 2.317546142578125 0.4874999999999997 2.317546142578125 0.5399999999999997 M 3.163588623046875 0.8534999999999997 L 3.6465886230468745 0.2609999999999997 L 3.186088623046875 0.2609999999999997 L 3.186088623046875 0.005999999999999783 L 3.9990886230468745 0.005999999999999783 L 3.9990886230468745 0.2234999999999997 L 3.5460886230468747 0.8159999999999997 L 4.008088623046874 0.8159999999999997 L 4.008088623046874 1.0709999999999997 L 3.163588623046875 1.0709999999999997 L 3.163588623046875 0.8534999999999997 M 4.615623046875 1.0799999999999996 Q 4.494123046875 1.0799999999999996 4.395123046875 1.0342499999999997 Q 4.296123046875 0.9884999999999997 4.2248730468749995 0.9112499999999997 Q 4.1536230468749995 0.8339999999999997 4.115373046875 0.7372499999999997 Q 4.077123046875 0.6404999999999997 4.077123046875 0.5369999999999997 Q 4.077123046875 0.43049999999999977 4.117623046875 0.3344999999999997 Q 4.158123046875 0.2384999999999997 4.230873046875 0.16274999999999973 Q 4.303623046875 0.08699999999999974 4.403373046875 0.04349999999999965 Q 4.503123046874999 -2.220446049250313e-16 4.6216230468749995 -2.220446049250313e-16 Q 4.743123046875 -2.220446049250313e-16 4.842123046875 0.045749999999999735 Q 4.941123046875 0.09149999999999969 5.011623046875 0.16949999999999976 Q 5.082123046875 0.24749999999999972 5.120373046875 0.3442499999999997 Q 5.158623046875 0.4409999999999997 5.158623046875 0.5429999999999997 Q 5.158623046875 0.6479999999999997 5.118873046875 0.7439999999999998 Q 5.079123046875 0.8399999999999997 5.006373046875 0.9157499999999997 Q 4.933623046875 0.9914999999999997 4.8346230468749996 1.0357499999999997 Q 4.735623046875 1.0799999999999996 4.615623046875 1.0799999999999996 M 4.374123046875 0.5399999999999997 Q 4.374123046875 0.5939999999999996 4.3891230468749995 0.6442499999999998 Q 4.404123046875 0.6944999999999997 4.4341230468749995 0.7342499999999997 Q 4.464123046875 0.7739999999999998 4.509873046875 0.7972499999999998 Q 4.555623046875 0.8204999999999998 4.618623046874999 0.8204999999999998 Q 4.681623046875 0.8204999999999998 4.728123046875 0.7964999999999998 Q 4.774623046875 0.7724999999999997 4.803873046875 0.7312499999999997 Q 4.8331230468749995 0.6899999999999997 4.847373046875 0.6397499999999997 Q 4.861623046875 0.5894999999999997 4.861623046875 0.5369999999999997 Q 4.861623046875 0.48299999999999976 4.846623046875 0.43349999999999966 Q 4.831623046874999 0.3839999999999997 4.801623046875 0.3442499999999997 Q 4.771623046875 0.30449999999999966 4.725123046875 0.2819999999999997 Q 4.678623046875 0.25949999999999973 4.617123046875 0.25949999999999973 Q 4.554123046875 0.25949999999999973 4.508373046875 0.28349999999999975 Q 4.462623046875 0.30749999999999966 4.432623046874999 0.3472499999999997 Q 4.402623046875 0.3869999999999997 4.3883730468749995 0.4372499999999997 Q 4.374123046875 0.4874999999999997 4.374123046875 0.5399999999999997 M 5.76764501953125 1.0799999999999996 Q 5.64614501953125 1.0799999999999996 5.54714501953125 1.0342499999999997 Q 5.44814501953125 0.9884999999999997 5.37689501953125 0.9112499999999997 Q 5.30564501953125 0.8339999999999997 5.26739501953125 0.7372499999999997 Q 5.22914501953125 0.6404999999999997 5.22914501953125 0.5369999999999997 Q 5.22914501953125 0.43049999999999977 5.26964501953125 0.3344999999999997 Q 5.31014501953125 0.2384999999999997 5.38289501953125 0.16274999999999973 Q 5.45564501953125 0.08699999999999974 5.55539501953125 0.04349999999999965 Q 5.65514501953125 -2.220446049250313e-16 5.77364501953125 -2.220446049250313e-16 Q 5.89514501953125 -2.220446049250313e-16 5.99414501953125 0.045749999999999735 Q 6.09314501953125 0.09149999999999969 6.16364501953125 0.16949999999999976 Q 6.23414501953125 0.24749999999999972 6.27239501953125 0.3442499999999997 Q 6.3106450195312505 0.4409999999999997 6.3106450195312505 0.5429999999999997 Q 6.3106450195312505 0.6479999999999997 6.27089501953125 0.7439999999999998 Q 6.23114501953125 0.8399999999999997 6.15839501953125 0.9157499999999997 Q 6.08564501953125 0.9914999999999997 5.98664501953125 1.0357499999999997 Q 5.88764501953125 1.0799999999999996 5.76764501953125 1.0799999999999996 M 5.52614501953125 0.5399999999999997 Q 5.52614501953125 0.5939999999999996 5.54114501953125 0.6442499999999998 Q 5.55614501953125 0.6944999999999997 5.58614501953125 0.7342499999999997 Q 5.61614501953125 0.7739999999999998 5.66189501953125 0.7972499999999998 Q 5.70764501953125 0.8204999999999998 5.7706450195312495 0.8204999999999998 Q 5.83364501953125 0.8204999999999998 5.88014501953125 0.7964999999999998 Q 5.92664501953125 0.7724999999999997 5.95589501953125 0.7312499999999997 Q 5.98514501953125 0.6899999999999997 5.99939501953125 0.6397499999999997 Q 6.01364501953125 0.5894999999999997 6.01364501953125 0.5369999999999997 Q 6.01364501953125 0.48299999999999976 5.99864501953125 0.43349999999999966 Q 5.98364501953125 0.3839999999999997 5.95364501953125 0.3442499999999997 Q 5.92364501953125 0.30449999999999966 5.87714501953125 0.2819999999999997 Q 5.83064501953125 0.25949999999999973 5.76914501953125 0.25949999999999973 Q 5.70614501953125 0.25949999999999973 5.66039501953125 0.28349999999999975 Q 5.61464501953125 0.30749999999999966 5.58464501953125 0.3472499999999997 Q 5.55464501953125 0.3869999999999997 5.54039501953125 0.4372499999999997 Q 5.52614501953125 0.4874999999999997 5.52614501953125 0.5399999999999997 M 6.4396669921875 1.0709999999999997 L 6.4396669921875 0.005999999999999783 L 6.7321669921875005 0.005999999999999783 L 6.7321669921875005 0.8159999999999997 L 7.2151669921875 0.8159999999999997 L 7.2151669921875 1.0709999999999997 L 6.4396669921875 1.0709999999999997" stroke-linecap="round" />
</g>
</g>
</g>
</svg>